<svg width="48" height="48" viewBox="0 0 48 48" fill="none" xmlns="http://www.w3.org/2000/svg">
<rect y="0.120483" width="47.7591" height="47.7591" rx="23.8796" fill="#F0F0F0"/>
<path d="M24.3967 38.3126H24.334L24.2727 38.3254C24.1417 38.3527 24.0085 38.368 23.8747 38.3712C23.2597 38.3662 22.671 38.1205 22.2349 37.6865C21.9454 37.3984 21.7385 37.0427 21.6297 36.6563H26.1139C26.0879 36.7577 26.0551 36.8575 26.0156 36.9549C25.8646 37.2988 25.6344 37.6021 25.3439 37.8402C25.0673 38.0668 24.7436 38.2282 24.3968 38.3126H24.3967ZM15.3592 30.7307L15.6953 30.5627V30.1871V22.1277V22.1164L15.6948 22.105C15.6217 20.147 16.0631 18.2041 16.9749 16.4699C17.4067 15.7087 17.9945 15.0473 18.6998 14.5291C19.4075 14.0092 20.2174 13.6452 21.0761 13.4611L21.5566 13.3582V12.8668V11.4308C21.5566 10.7953 22.0717 10.2802 22.7072 10.2802H25.0517C25.6871 10.2802 26.2023 10.7953 26.2023 11.4308V12.8668V13.3469L26.6693 13.4581C28.4084 13.8721 29.7382 14.8259 30.6443 16.2574C31.5584 17.7013 32.0636 19.6689 32.0636 22.1277V30.1871V30.5627L32.3996 30.7307L34.3583 31.7101C34.748 31.905 34.9943 32.3034 34.9943 32.7392V32.8247C34.9943 33.4601 34.4791 33.9752 33.8437 33.9752H13.9151C13.2797 33.9752 12.7646 33.4601 12.7646 32.8247V32.7392C12.7646 32.3034 13.0108 31.905 13.4006 31.7101L15.3592 30.7307Z" stroke="black" stroke-width="1.21569"/>
</svg>
